<svg width="25" height="23" viewBox="0 0 25 23" fill="none" xmlns="http://www.w3.org/2000/svg">
<path d="M3.97266 22.0898C2.67578 22.0898 1.6875 21.7539 1.00781 21.082C0.335938 20.418 0 19.4453 0 18.1641V3.92578C0 2.64453 0.335938 1.67188 1.00781 1.00781C1.6875 0.335938 2.67578 0 3.97266 0H20.1797C21.4766 0 22.4609 0.335938 23.1328 1.00781C23.8047 1.67188 24.1406 2.64453 24.1406 3.92578V18.1641C24.1406 19.4453 23.8047 20.418 23.1328 21.082C22.4609 21.7539 21.4766 22.0898 20.1797 22.0898H3.97266ZM4.04297 19.4883H20.0859C20.5547 19.4883 20.9141 19.3711 21.1641 19.1367C21.4141 18.8945 21.5391 18.5273 21.5391 18.0352V7.37109C21.5391 6.88672 21.4141 6.52734 21.1641 6.29297C20.9141 6.05078 20.5547 5.92969 20.0859 5.92969H4.04297C3.58203 5.92969 3.22656 6.05078 2.97656 6.29297C2.72656 6.52734 2.60156 6.88672 2.60156 7.37109V18.0352C2.60156 18.5273 2.72656 18.8945 2.97656 19.1367C3.22656 19.3711 3.58203 19.4883 4.04297 19.4883ZM9.84375 9.87891C9.63281 9.87891 9.48438 9.83984 9.39844 9.76172C9.3125 9.67578 9.26953 9.53125 9.26953 9.32812V8.63672C9.26953 8.42578 9.3125 8.28125 9.39844 8.20312C9.48438 8.125 9.63281 8.08594 9.84375 8.08594H10.5234C10.7344 8.08594 10.8828 8.125 10.9688 8.20312C11.0547 8.28125 11.0977 8.42578 11.0977 8.63672V9.32812C11.0977 9.53125 11.0547 9.67578 10.9688 9.76172C10.8828 9.83984 10.7344 9.87891 10.5234 9.87891H9.84375ZM13.6289 9.87891C13.418 9.87891 13.2695 9.83984 13.1836 9.76172C13.1055 9.67578 13.0664 9.53125 13.0664 9.32812V8.63672C13.0664 8.42578 13.1055 8.28125 13.1836 8.20312C13.2695 8.125 13.418 8.08594 13.6289 8.08594H14.3203C14.5312 8.08594 14.6758 8.125 14.7539 8.20312C14.8398 8.28125 14.8828 8.42578 14.8828 8.63672V9.32812C14.8828 9.53125 14.8398 9.67578 14.7539 9.76172C14.6758 9.83984 14.5312 9.87891 14.3203 9.87891H13.6289ZM17.4141 9.87891C17.2031 9.87891 17.0547 9.83984 16.9688 9.76172C16.8828 9.67578 16.8398 9.53125 16.8398 9.32812V8.63672C16.8398 8.42578 16.8828 8.28125 16.9688 8.20312C17.0547 8.125 17.2031 8.08594 17.4141 8.08594H18.0938C18.3125 8.08594 18.4609 8.125 18.5391 8.20312C18.625 8.28125 18.668 8.42578 18.668 8.63672V9.32812C18.668 9.53125 18.625 9.67578 18.5391 9.76172C18.4609 9.83984 18.3125 9.87891 18.0938 9.87891H17.4141ZM6.05859 13.6055C5.83984 13.6055 5.6875 13.5664 5.60156 13.4883C5.52344 13.4023 5.48438 13.2539 5.48438 13.043V12.3633C5.48438 12.1523 5.52344 12.0078 5.60156 11.9297C5.6875 11.8516 5.83984 11.8125 6.05859 11.8125H6.75C6.96094 11.8125 7.10547 11.8516 7.18359 11.9297C7.26172 12.0078 7.30078 12.1523 7.30078 12.3633V13.043C7.30078 13.2539 7.26172 13.4023 7.18359 13.4883C7.10547 13.5664 6.96094 13.6055 6.75 13.6055H6.05859ZM9.84375 13.6055C9.63281 13.6055 9.48438 13.5664 9.39844 13.4883C9.3125 13.4023 9.26953 13.2539 9.26953 13.043V12.3633C9.26953 12.1523 9.3125 12.0078 9.39844 11.9297C9.48438 11.8516 9.63281 11.8125 9.84375 11.8125H10.5234C10.7344 11.8125 10.8828 11.8516 10.9688 11.9297C11.0547 12.0078 11.0977 12.1523 11.0977 12.3633V13.043C11.0977 13.2539 11.0547 13.4023 10.9688 13.4883C10.8828 13.5664 10.7344 13.6055 10.5234 13.6055H9.84375ZM13.6289 13.6055C13.418 13.6055 13.2695 13.5664 13.1836 13.4883C13.1055 13.4023 13.0664 13.2539 13.0664 13.043V12.3633C13.0664 12.1523 13.1055 12.0078 13.1836 11.9297C13.2695 11.8516 13.418 11.8125 13.6289 11.8125H14.3203C14.5312 11.8125 14.6758 11.8516 14.7539 11.9297C14.8398 12.0078 14.8828 12.1523 14.8828 12.3633V13.043C14.8828 13.2539 14.8398 13.4023 14.7539 13.4883C14.6758 13.5664 14.5312 13.6055 14.3203 13.6055H13.6289ZM17.4141 13.6055C17.2031 13.6055 17.0547 13.5664 16.9688 13.4883C16.8828 13.4023 16.8398 13.2539 16.8398 13.043V12.3633C16.8398 12.1523 16.8828 12.0078 16.9688 11.9297C17.0547 11.8516 17.2031 11.8125 17.4141 11.8125H18.0938C18.3125 11.8125 18.4609 11.8516 18.5391 11.9297C18.625 12.0078 18.668 12.1523 18.668 12.3633V13.043C18.668 13.2539 18.625 13.4023 18.5391 13.4883C18.4609 13.5664 18.3125 13.6055 18.0938 13.6055H17.4141ZM6.05859 17.332C5.83984 17.332 5.6875 17.293 5.60156 17.2148C5.52344 17.1367 5.48438 16.9883 5.48438 16.7695V16.0898C5.48438 15.8789 5.52344 15.7344 5.60156 15.6562C5.6875 15.5781 5.83984 15.5391 6.05859 15.5391H6.75C6.96094 15.5391 7.10547 15.5781 7.18359 15.6562C7.26172 15.7344 7.30078 15.8789 7.30078 16.0898V16.7695C7.30078 16.9883 7.26172 17.1367 7.18359 17.2148C7.10547 17.293 6.96094 17.332 6.75 17.332H6.05859ZM9.84375 17.332C9.63281 17.332 9.48438 17.293 9.39844 17.2148C9.3125 17.1367 9.26953 16.9883 9.26953 16.7695V16.0898C9.26953 15.8789 9.3125 15.7344 9.39844 15.6562C9.48438 15.5781 9.63281 15.5391 9.84375 15.5391H10.5234C10.7344 15.5391 10.8828 15.5781 10.9688 15.6562C11.0547 15.7344 11.0977 15.8789 11.0977 16.0898V16.7695C11.0977 16.9883 11.0547 17.1367 10.9688 17.2148C10.8828 17.293 10.7344 17.332 10.5234 17.332H9.84375ZM13.6289 17.332C13.418 17.332 13.2695 17.293 13.1836 17.2148C13.1055 17.1367 13.0664 16.9883 13.0664 16.7695V16.0898C13.0664 15.8789 13.1055 15.7344 13.1836 15.6562C13.2695 15.5781 13.418 15.5391 13.6289 15.5391H14.3203C14.5312 15.5391 14.6758 15.5781 14.7539 15.6562C14.8398 15.7344 14.8828 15.8789 14.8828 16.0898V16.7695C14.8828 16.9883 14.8398 17.1367 14.7539 17.2148C14.6758 17.293 14.5312 17.332 14.3203 17.332H13.6289Z" fill="#48C7FF"/>
</svg>
