<svg width="22" height="22" viewBox="0 0 22 22" fill="none" xmlns="http://www.w3.org/2000/svg">
<path d="M18.9449 5.85668C18.9709 5.84154 18.9924 5.81987 19.0074 5.79382C19.0223 5.76778 19.0302 5.73826 19.0302 5.70822C19.0302 5.67819 19.0223 5.64867 19.0074 5.62262C18.9924 5.59658 18.9709 5.5749 18.9449 5.55977L12.3819 1.74672C11.9619 1.50331 11.4852 1.37512 10.9998 1.37512C10.5144 1.37512 10.0376 1.50331 9.6177 1.74672L3.05594 5.55977C3.03 5.5749 3.00847 5.59658 2.99351 5.62262C2.97855 5.64867 2.97068 5.67819 2.97068 5.70822C2.97068 5.73826 2.97855 5.76778 2.99351 5.79382C3.00847 5.81987 3.03 5.84154 3.05594 5.85668L10.9141 10.4793C10.9405 10.4948 10.9706 10.503 11.0013 10.503C11.032 10.503 11.0621 10.4948 11.0885 10.4793L18.9449 5.85668ZM2.32032 7.02586C2.29411 7.01073 2.26436 7.00278 2.2341 7.00283C2.20383 7.00288 2.17412 7.01092 2.14796 7.02614C2.1218 7.04135 2.10012 7.06321 2.08511 7.08949C2.07011 7.11578 2.06231 7.14556 2.0625 7.17582V14.6477C2.06315 15.0077 2.15805 15.3613 2.33777 15.6734C2.51748 15.9854 2.77575 16.2449 3.08688 16.4261L10.0547 20.604C10.0808 20.6191 10.1104 20.627 10.1406 20.627C10.1707 20.627 10.2004 20.6191 10.2265 20.604C10.2526 20.589 10.2743 20.5673 10.2894 20.5412C10.3045 20.5151 10.3125 20.4855 10.3125 20.4553V11.7864C10.3125 11.7562 10.3045 11.7266 10.2894 11.7005C10.2743 11.6744 10.2527 11.6528 10.2266 11.6377L2.32032 7.02586ZM11.6875 11.8164V20.4532C11.6875 20.4833 11.6955 20.5129 11.7106 20.539C11.7257 20.5651 11.7474 20.5868 11.7735 20.6019C11.7996 20.6169 11.8293 20.6249 11.8594 20.6249C11.8896 20.6249 11.9192 20.6169 11.9453 20.6018L18.9127 16.424C19.2236 16.243 19.4817 15.9838 19.6615 15.6722C19.8413 15.3606 19.9364 15.0074 19.9375 14.6477V7.17582C19.9374 7.1457 19.9294 7.11614 19.9143 7.0901C19.8991 7.06405 19.8774 7.04244 19.8513 7.02743C19.8252 7.01241 19.7956 7.00452 19.7655 7.00455C19.7354 7.00458 19.7058 7.01252 19.6797 7.02758L11.7734 11.6682C11.7474 11.6832 11.7258 11.7048 11.7107 11.7309C11.6956 11.7569 11.6876 11.7864 11.6875 11.8164Z" fill="#A0A0A0"/>
</svg>
